<?xml version="1.0" encoding="iso-8859-1"?>
<!-- Generator: Adobe Illustrator 19.0.0, SVG Export Plug-In . SVG Version: 6.00 Build 0)  -->
<svg version="1.1" id="Capa_1" xmlns="http://www.w3.org/2000/svg" xmlns:xlink="http://www.w3.org/1999/xlink" x="0px" y="0px"
	 viewBox="0 0 464 464" style="enable-background:new 0 0 464 464;" xml:space="preserve">
<path style="fill:#FDBD40;" d="M251.72,144c-5.718-9.903-16.285-16.003-27.72-16H64c-17.673,0-32,14.327-32,32v64
	c0,17.673,14.327,32,32,32h160c11.435,0.003,22.002-6.097,27.72-16h34.256c-7.332,28.237-32.803,47.964-61.976,48H64
	c-35.33-0.04-63.96-28.67-64-64v-64c0.04-35.33,28.67-63.96,64-64h160c29.173,0.036,54.644,19.763,61.976,48H251.72z"/>
<path style="fill:#5F79BA;" d="M212.28,320c5.718,9.903,16.285,16.003,27.72,16h160c17.673,0,32-14.327,32-32v-64
	c0-17.673-14.327-32-32-32H240c-11.435-0.003-22.002,6.097-27.72,16h-34.256c7.332-28.237,32.803-47.964,61.976-48h160
	c35.346,0,64,28.654,64,64v64c0,35.346-28.654,64-64,64H240c-29.173-0.036-54.644-19.763-61.976-48H212.28z"/>
<g>
	<path style="fill:#FCF05A;" d="M64,232c-4.418,0-8-3.582-8-8v-64c0-4.418,3.582-8,8-8h64c4.418,0,8,3.582,8,8s-3.582,8-8,8H72v56
		C72,228.418,68.418,232,64,232z"/>
	<path style="fill:#FCF05A;" d="M400,312h-64c-4.418,0-8-3.582-8-8s3.582-8,8-8h56v-56c0-4.418,3.582-8,8-8s8,3.582,8,8v64
		C408,308.418,404.418,312,400,312z"/>
	<path style="fill:#FCF05A;" d="M328,88h16v16h-16V88z"/>
	<path style="fill:#FCF05A;" d="M328,120h16v16h-16V120z"/>
	<path style="fill:#FCF05A;" d="M312,104h16v16h-16V104z"/>
	<path style="fill:#FCF05A;" d="M344,104h16v16h-16V104z"/>
	<path style="fill:#FCF05A;" d="M104,328h16v16h-16V328z"/>
	<path style="fill:#FCF05A;" d="M104,360h16v16h-16V360z"/>
	<path style="fill:#FCF05A;" d="M88,344h16v16H88V344z"/>
	<path style="fill:#FCF05A;" d="M120,344h16v16h-16V344z"/>
</g>
<g>
</g>
<g>
</g>
<g>
</g>
<g>
</g>
<g>
</g>
<g>
</g>
<g>
</g>
<g>
</g>
<g>
</g>
<g>
</g>
<g>
</g>
<g>
</g>
<g>
</g>
<g>
</g>
<g>
</g>
</svg>
